<svg version="1.1" xmlns="http://www.w3.org/2000/svg" xmlns:xlink="http://www.w3.org/1999/xlink" width="264.26426" height="264.26426" viewBox="0,0,264.26426,264.26426"><g transform="translate(-107.86787,-47.86787)"><g data-paper-data="{&quot;isPaintingLayer&quot;:true}" fill-rule="nonzero" stroke="none" stroke-linecap="butt" stroke-linejoin="miter" stroke-miterlimit="10" stroke-dasharray="" stroke-dashoffset="0" style="mix-blend-mode: normal"><path d="M107.86787,180c0,-72.97456 59.15757,-132.13213 132.13213,-132.13213c72.97456,0 132.13213,59.15757 132.13213,132.13213c0,72.97456 -59.15757,132.13213 -132.13213,132.13213c-72.97456,0 -132.13213,-59.15757 -132.13213,-132.13213z" fill="#ffffff" stroke-width="0"/><path d="M240,115.99956l-27.95594,16.14004c-9.56328,-2.04492 -18.73052,-5.38537 -27.21816,-10.04681l55.1741,-31.85359l37.74519,21.79016v14.81737c-4.08375,1.49049 -8.19464,2.76774 -12.32824,3.82786l-25.41695,-14.67503" fill="#0085ff" stroke-width="1"/><path d="M295.4239,211.99898v-15.65373c7.74545,-4.38838 15.23223,-9.6159 22.31191,-15.69029v25.551c-20.37167,17.75681 -44.18238,28.48655 -67.90446,32.11778l45.59255,-26.32476" fill="#006cd2" stroke-width="1"/><path d="M221.45668,212.87577c14.38202,1.42236 29.37442,0.06646 44.11591,-4.05606l-25.5726,14.76309l-18.54332,-10.70703" fill="#006cd2" stroke-width="1"/><path d="M184.57444,211.99898v16.91103c-8.06891,-4.04498 -15.58228,-9.22818 -22.31025,-15.5568v-27.1085c6.70858,6.47484 14.22361,11.78433 22.31025,15.94119v9.81307" fill="#006cd2" stroke-width="1"/><path d="M202.25536,235.73048v-13.52351l30.30604,17.50091c-10.39243,0.07035 -20.59598,-1.25121 -30.30604,-3.9774" fill="#006cd2" stroke-width="1"/><path d="M240,243.99823l9.83135,-5.67449c23.72208,-3.63123 47.53279,-14.36097 67.90446,-32.11778v18.67403l-77.73581,44.88081l-37.74463,-21.79292v-12.2374c9.71006,2.72619 19.91361,4.04775 30.30604,3.9774l7.43859,4.29035" fill="#0085ff" stroke-width="1"/><path d="M184.57444,237.75989l-22.31025,-12.8799v-11.52678c6.72797,6.32862 14.24134,11.51182 22.31025,15.5568v8.84988" fill="#0085ff" stroke-width="1"/><path d="M184.57444,147.99881v0.70398c-7.31619,-3.94915 -14.14386,-8.85874 -20.29635,-14.74481l20.5478,-11.86519c8.48764,4.66145 17.65489,8.00189 27.21817,10.04681l-27.46962,15.85921" fill="#509ee6" stroke-width="1"/><path d="M277.74519,126.84673v10.94354l-12.32824,-7.11568c4.1336,-1.06013 8.24448,-2.33737 12.32824,-3.82786" fill="#509ee6" stroke-width="1"/><path d="M271.91284,154.84033c-22.65863,7.26191 -46.12815,7.94262 -67.25032,1.97679l35.33748,-20.40213l31.91284,18.42534" fill="#509ee6" stroke-width="1"/><path d="M313.67144,132.77212c-5.8689,4.53184 -11.97598,8.51146 -18.24755,11.94939v-22.48305l18.24755,10.53367" fill="#509ee6" stroke-width="1"/><path d="M184.57444,148.70279v26.75734c-8.10325,-4.2693 -15.62105,-9.71005 -22.31025,-16.33334v-24.00733l2.0139,-1.16148c6.15249,5.88607 12.98015,10.79566 20.29635,14.74481" fill="#0085ff" stroke-width="1"/><path d="M202.67077,182.65668v-24.44822l2.40716,-1.39134c21.12218,5.96583 44.59169,5.28511 67.25033,-1.97679l5.83234,3.36813v20.58049c-25.23749,9.61479 -51.89514,10.93578 -75.48983,3.86773" fill="#0085ff" stroke-width="1"/><path d="M295.4239,147.99881v-3.2773c6.27157,-3.43793 12.37865,-7.41755 18.24755,-11.94939l4.06437,2.34734v19.97066c-7.08744,5.98632 -14.572,11.1313 -22.31191,15.4438v-22.53512" fill="#0085ff" stroke-width="1"/><path d="M184.57444,182.98513v19.20077c-8.08664,-4.15686 -15.60167,-9.46635 -22.31025,-15.94119v-27.11792c6.6892,6.62329 14.207,12.06404 22.31025,16.33334v7.525" fill="#0057a9" stroke-width="1"/><path d="M295.4239,180.65496v-10.12103c7.73991,-4.3125 15.22447,-9.45748 22.31191,-15.4438v25.56483c-7.07968,6.07439 -14.56646,11.3019 -22.31191,15.69029v-15.69029" fill="#0057a9" stroke-width="1"/><path d="M277.74519,180.65496v21.13492l-12.17259,7.02983c-14.74149,4.12252 -29.73389,5.47842 -44.11591,4.05606l-19.20132,-11.08589v-18.80474v-0.32845c23.59469,7.06805 50.25233,5.74705 75.48983,-3.86773v1.86601" fill="#0057a9" stroke-width="1"/></g></g></svg>