<svg version="1.1" xmlns="http://www.w3.org/2000/svg" xmlns:xlink="http://www.w3.org/1999/xlink" width="262.25525" height="168.28066" viewBox="0,0,262.25525,168.28066"><defs><linearGradient x1="142.33035" y1="180" x2="337.66966" y2="180" gradientTransform="translate(-50.07154,-75.32365) scale(0.3518,0.3518)" gradientUnits="userSpaceOnUse" id="color-1"><stop offset="0" stop-color="#02e27c"/><stop offset="1" stop-color="#01a2f1"/></linearGradient><linearGradient x1="142.33113" y1="181.3157" x2="337.67136" y2="181.3157" gradientTransform="translate(-50.07154,-75.32365) scale(0.3518,0.3518)" gradientUnits="userSpaceOnUse" id="color-2"><stop offset="0" stop-color="#02e870"/><stop offset="1" stop-color="#009aff"/></linearGradient><linearGradient x1="107.11712" y1="111.40015" x2="156.66667" y2="111.40015" gradientUnits="userSpaceOnUse" id="color-3"><stop offset="0" stop-color="#02e27c"/><stop offset="1" stop-color="#01a2f1"/></linearGradient><linearGradient x1="107.11712" y1="111.40015" x2="156.66667" y2="111.40015" gradientUnits="userSpaceOnUse" id="color-4"><stop offset="0" stop-color="#02e870"/><stop offset="1" stop-color="#009aff"/></linearGradient><linearGradient x1="317.82282" y1="226.00976" x2="367.37237" y2="226.00976" gradientUnits="userSpaceOnUse" id="color-5"><stop offset="0" stop-color="#02e27c"/><stop offset="1" stop-color="#01a2f1"/></linearGradient><linearGradient x1="317.82282" y1="226.00976" x2="367.37237" y2="226.00976" gradientUnits="userSpaceOnUse" id="color-6"><stop offset="0" stop-color="#02e870"/><stop offset="1" stop-color="#009aff"/></linearGradient><linearGradient x1="267.65362" y1="102.81949" x2="296.57301" y2="102.81949" gradientUnits="userSpaceOnUse" id="color-7"><stop offset="0" stop-color="#02e27c"/><stop offset="1" stop-color="#01a2f1"/></linearGradient><linearGradient x1="267.65362" y1="102.81949" x2="296.57301" y2="102.81949" gradientUnits="userSpaceOnUse" id="color-8"><stop offset="0" stop-color="#02e870"/><stop offset="1" stop-color="#009aff"/></linearGradient></defs><g transform="translate(-106.11711,-85.62537)"><g data-paper-data="{&quot;isPaintingLayer&quot;:true}" fill-rule="nonzero" stroke-linecap="butt" stroke-linejoin="miter" stroke-miterlimit="10" stroke-dasharray="" stroke-dashoffset="0" style="mix-blend-mode: normal"><text transform="translate(142.33035,214.11048) scale(2.84254,2.84254)" font-size="40" xml:space="preserve" fill="url(#color-1)" fill-rule="nonzero" stroke="url(#color-2)" stroke-width="4" stroke-linecap="butt" stroke-linejoin="miter" stroke-miterlimit="10" stroke-dasharray="" stroke-dashoffset="0" font-family="Sans Serif" font-weight="normal" text-anchor="start" style="mix-blend-mode: normal"><tspan x="0" dy="0">CEF</tspan></text><path d="M107.11712,111.40015c0,-13.68273 11.09204,-24.77477 24.77477,-24.77477c13.68273,0 24.77478,11.09204 24.77478,24.77477c0,13.68273 -11.09205,24.77478 -24.77478,24.77478c-13.68273,0 -24.77477,-11.09205 -24.77477,-24.77478z" fill="url(#color-3)" stroke="url(#color-4)" stroke-width="2"/><path d="M317.82282,226.00976c0,-13.68273 11.09205,-24.77478 24.77478,-24.77478c13.68273,0 24.77477,11.09205 24.77477,24.77478c0,13.68273 -11.09204,24.77478 -24.77477,24.77478c-13.68273,0 -24.77478,-11.09205 -24.77478,-24.77478z" fill="url(#color-5)" stroke="url(#color-6)" stroke-width="2"/><path d="M267.65362,102.81949c0,-7.98587 6.47383,-14.4597 14.4597,-14.4597c7.98587,0 14.4597,6.47383 14.4597,14.4597c0,7.98587 -6.47383,14.4597 -14.4597,14.4597c-7.98587,0 -14.4597,-6.47383 -14.4597,-14.4597z" fill="url(#color-7)" stroke="url(#color-8)" stroke-width="2"/></g></g></svg>