<svg version="1.1" xmlns="http://www.w3.org/2000/svg" xmlns:xlink="http://www.w3.org/1999/xlink" width="1378.74268" height="887.18025" viewBox="0,0,1378.74268,887.18025"><defs><linearGradient x1="-262.09438" y1="239.75046" x2="771.24485" y2="239.75046" gradientTransform="translate(17.43002,-27.94408) scale(0.0665,0.0665)" gradientUnits="userSpaceOnUse" id="color-1"><stop offset="0" stop-color="#02e27c"/><stop offset="1" stop-color="#01a2f1"/></linearGradient><linearGradient x1="-262.09023" y1="246.71047" x2="771.25384" y2="246.71047" gradientTransform="translate(17.43002,-27.94408) scale(0.0665,0.0665)" gradientUnits="userSpaceOnUse" id="color-2"><stop offset="0" stop-color="#02e870"/><stop offset="1" stop-color="#009aff"/></linearGradient><linearGradient x1="-448.37134" y1="-123.14074" x2="-186.25567" y2="-123.14074" gradientUnits="userSpaceOnUse" id="color-3"><stop offset="0" stop-color="#02e27c"/><stop offset="1" stop-color="#01a2f1"/></linearGradient><linearGradient x1="-448.37134" y1="-123.14074" x2="-186.25567" y2="-123.14074" gradientUnits="userSpaceOnUse" id="color-4"><stop offset="0" stop-color="#02e870"/><stop offset="1" stop-color="#009aff"/></linearGradient><linearGradient x1="666.25567" y1="483.14074" x2="928.37134" y2="483.14074" gradientUnits="userSpaceOnUse" id="color-5"><stop offset="0" stop-color="#02e27c"/><stop offset="1" stop-color="#01a2f1"/></linearGradient><linearGradient x1="666.25567" y1="483.14074" x2="928.37134" y2="483.14074" gradientUnits="userSpaceOnUse" id="color-6"><stop offset="0" stop-color="#02e870"/><stop offset="1" stop-color="#009aff"/></linearGradient><linearGradient x1="400.86208" y1="-168.53217" x2="553.84481" y2="-168.53217" gradientUnits="userSpaceOnUse" id="color-7"><stop offset="0" stop-color="#02e27c"/><stop offset="1" stop-color="#01a2f1"/></linearGradient><linearGradient x1="400.86208" y1="-168.53217" x2="553.84481" y2="-168.53217" gradientUnits="userSpaceOnUse" id="color-8"><stop offset="0" stop-color="#02e870"/><stop offset="1" stop-color="#009aff"/></linearGradient></defs><g transform="translate(449.37134,256.469)"><g data-paper-data="{&quot;isPaintingLayer&quot;:true}" fill-rule="nonzero" stroke-linecap="butt" stroke-linejoin="miter" stroke-miterlimit="10" stroke-dasharray="" stroke-dashoffset="0" style="mix-blend-mode: normal"><text transform="translate(-262.09438,420.1939) scale(15.03695,15.03695)" font-size="40" xml:space="preserve" fill="url(#color-1)" fill-rule="nonzero" stroke="url(#color-2)" stroke-width="4" stroke-linecap="butt" stroke-linejoin="miter" stroke-miterlimit="10" stroke-dasharray="" stroke-dashoffset="0" font-family="Sans Serif" font-weight="normal" text-anchor="start" style="mix-blend-mode: normal"><tspan x="0" dy="0">CEF</tspan></text><path d="M-448.37134,-123.14074c0,-72.38124 58.67659,-131.05783 131.05783,-131.05783c72.38124,0 131.05783,58.67659 131.05783,131.05783c0,72.38124 -58.67659,131.05783 -131.05783,131.05783c-72.38124,0 -131.05783,-58.67659 -131.05783,-131.05783z" fill="url(#color-3)" stroke="url(#color-4)" stroke-width="2"/><path d="M666.25567,483.14074c0,-72.38124 58.67659,-131.05783 131.05783,-131.05783c72.38124,0 131.05783,58.67659 131.05783,131.05783c0,72.38124 -58.67659,131.05783 -131.05783,131.05783c-72.38124,0 -131.05783,-58.67659 -131.05783,-131.05783z" fill="url(#color-5)" stroke="url(#color-6)" stroke-width="2"/><path d="M400.86208,-168.53217c0,-42.24501 34.24635,-76.49137 76.49137,-76.49137c42.24501,0 76.49137,34.24635 76.49137,76.49137c0,42.24501 -34.24635,76.49137 -76.49137,76.49137c-42.24501,0 -76.49137,-34.24635 -76.49137,-76.49137z" fill="url(#color-7)" stroke="url(#color-8)" stroke-width="2"/></g></g></svg> 