<svg version="1.1" xmlns="http://www.w3.org/2000/svg" xmlns:xlink="http://www.w3.org/1999/xlink" width="354.34836" height="354.34837" viewBox="0,0,354.34836,354.34837"><defs><linearGradient x1="65.82582" y1="180" x2="414.17417" y2="180" gradientUnits="userSpaceOnUse" id="color-1"><stop offset="0" stop-color="#009aff" stop-opacity="0"/><stop offset="1" stop-color="#009aff"/></linearGradient><linearGradient x1="116.92429" y1="179.99999" x2="363.07571" y2="179.99999" gradientUnits="userSpaceOnUse" id="color-2"><stop offset="0" stop-color="#009aff"/><stop offset="1" stop-color="#00ffe6"/></linearGradient><linearGradient x1="148.10831" y1="179.99999" x2="331.89168" y2="179.99999" gradientUnits="userSpaceOnUse" id="color-3"><stop offset="0" stop-color="#009aff"/><stop offset="1" stop-color="#00ff9b"/></linearGradient><linearGradient x1="142.57223" y1="187.60348" x2="340.47239" y2="187.60348" gradientTransform="translate(-49.50768,-77.14457) scale(0.34725,0.34725)" gradientUnits="userSpaceOnUse" id="color-4"><stop offset="0" stop-color="#02e27c"/><stop offset="1" stop-color="#01a2f1"/></linearGradient><linearGradient x1="142.57302" y1="188.93643" x2="340.47411" y2="188.93643" gradientTransform="translate(-49.50768,-77.14457) scale(0.34725,0.34725)" gradientUnits="userSpaceOnUse" id="color-5"><stop offset="0" stop-color="#02e870"/><stop offset="1" stop-color="#009aff"/></linearGradient><linearGradient x1="109.17731" y1="111.26167" x2="159.37598" y2="111.26167" gradientUnits="userSpaceOnUse" id="color-6"><stop offset="0" stop-color="#02e27c"/><stop offset="1" stop-color="#01a2f1"/></linearGradient><linearGradient x1="109.17731" y1="111.26167" x2="159.37598" y2="111.26167" gradientUnits="userSpaceOnUse" id="color-7"><stop offset="0" stop-color="#02e870"/><stop offset="1" stop-color="#009aff"/></linearGradient><linearGradient x1="326.44438" y1="238.01559" x2="376.64305" y2="238.01559" gradientUnits="userSpaceOnUse" id="color-8"><stop offset="0" stop-color="#02e27c"/><stop offset="1" stop-color="#01a2f1"/></linearGradient><linearGradient x1="326.44438" y1="238.01559" x2="376.64305" y2="238.01559" gradientUnits="userSpaceOnUse" id="color-9"><stop offset="0" stop-color="#02e870"/><stop offset="1" stop-color="#009aff"/></linearGradient><linearGradient x1="268.01589" y1="101.80839" x2="297.31414" y2="101.80839" gradientUnits="userSpaceOnUse" id="color-10"><stop offset="0" stop-color="#02e27c"/><stop offset="1" stop-color="#01a2f1"/></linearGradient><linearGradient x1="268.01589" y1="101.80839" x2="297.31414" y2="101.80839" gradientUnits="userSpaceOnUse" id="color-11"><stop offset="0" stop-color="#02e870"/><stop offset="1" stop-color="#009aff"/></linearGradient><linearGradient x1="217.58639" y1="269.55787" x2="246.88464" y2="269.55787" gradientUnits="userSpaceOnUse" id="color-12"><stop offset="0" stop-color="#02e27c"/><stop offset="1" stop-color="#01a2f1"/></linearGradient><linearGradient x1="217.58639" y1="269.55787" x2="246.88464" y2="269.55787" gradientUnits="userSpaceOnUse" id="color-13"><stop offset="0" stop-color="#02e870"/><stop offset="1" stop-color="#009aff"/></linearGradient><linearGradient x1="147.26368" y1="273.74284" x2="217.96278" y2="273.74284" gradientUnits="userSpaceOnUse" id="color-14"><stop offset="0" stop-color="#009aff" stop-opacity="0"/><stop offset="1" stop-color="#009aff"/></linearGradient></defs><g transform="translate(-62.82582,-2.82582)"><g data-paper-data="{&quot;isPaintingLayer&quot;:true}" fill-rule="nonzero" stroke-linejoin="miter" stroke-miterlimit="10" stroke-dasharray="" stroke-dashoffset="0" style="mix-blend-mode: normal"><g><path d="M65.82582,180c0,-96.19374 77.98043,-174.17418 174.17418,-174.17418c96.19374,0 174.17418,77.98044 174.17418,174.17418c0,96.19374 -77.98044,174.17418 -174.17418,174.17418c-96.19374,0 -174.17418,-77.98044 -174.17418,-174.17418z" fill="#000343" stroke="url(#color-1)" stroke-width="6" stroke-linecap="butt"/><path d="M116.92429,179.99999c0,-67.97283 55.10287,-123.0757 123.07571,-123.0757c67.97284,0 123.0757,55.10287 123.0757,123.07571c0,67.97284 -55.10287,123.07572 -123.0757,123.07572c-67.97283,0 -123.0757,-55.10288 -123.0757,-123.07572z" fill="none" stroke="url(#color-2)" stroke-width="6" stroke-linecap="butt"/><path d="M148.10831,179.99999c0,-50.75037 41.14131,-91.89167 91.89169,-91.89167c50.75037,0 91.89167,41.1413 91.89167,91.89167c0,50.75037 -41.1413,91.89169 -91.89167,91.89169c-50.75037,0 -91.89169,-41.14131 -91.89169,-91.89169z" fill="none" stroke="url(#color-3)" stroke-width="7" stroke-linecap="butt"/><text transform="translate(142.57124,222.15939) scale(2.87978,2.87978)" font-size="40" xml:space="preserve" fill="url(#color-4)" fill-rule="nonzero" stroke="url(#color-5)" stroke-width="4" stroke-linecap="butt" stroke-linejoin="miter" stroke-miterlimit="10" stroke-dasharray="" stroke-dashoffset="0" font-family="Sans Serif" font-weight="normal" text-anchor="start" style="mix-blend-mode: normal"><tspan x="0" dy="0">CEF</tspan></text><path d="M109.17731,111.26167c0,-13.86198 11.23735,-25.09933 25.09933,-25.09933c13.86198,0 25.09934,11.23735 25.09934,25.09933c0,13.86198 -11.23736,25.09934 -25.09934,25.09934c-13.86198,0 -25.09933,-11.23736 -25.09933,-25.09934z" fill="url(#color-6)" stroke="url(#color-7)" stroke-width="2" stroke-linecap="butt"/><path d="M326.44438,238.01559c0,-13.86198 11.23736,-25.09934 25.09934,-25.09934c13.86198,0 25.09933,11.23736 25.09933,25.09934c0,13.86198 -11.23735,25.09934 -25.09933,25.09934c-13.86198,0 -25.09934,-11.23736 -25.09934,-25.09934z" fill="url(#color-8)" stroke="url(#color-9)" stroke-width="2" stroke-linecap="butt"/><path d="M268.01589,101.80839c0,-8.09049 6.55864,-14.64912 14.64913,-14.64912c8.09049,0 14.64913,6.55863 14.64913,14.64912c0,8.09049 -6.55864,14.64912 -14.64913,14.64912c-8.09049,0 -14.64913,-6.55863 -14.64913,-14.64912z" fill="url(#color-10)" stroke="url(#color-11)" stroke-width="2" stroke-linecap="butt"/><path d="M217.58639,269.55787c0,-8.09049 6.55864,-14.64913 14.64913,-14.64913c8.09049,0 14.64913,6.55864 14.64913,14.64913c0,8.09049 -6.55864,14.64912 -14.64913,14.64912c-8.09049,0 -14.64913,-6.55863 -14.64913,-14.64912z" fill="url(#color-12)" stroke="url(#color-13)" stroke-width="2" stroke-linecap="butt"/><path d="M217.96278,238.39328l-70.69911,70.69911" fill="none" stroke="url(#color-14)" stroke-width="6" stroke-linecap="round"/></g></g></g></svg>